<mxfile host="app.diagrams.net" modified="2020-11-04T13:37:14.564Z" agent="5.0 (Macintosh; Intel Mac OS X 10_15_6) AppleWebKit/537.36 (KHTML, like Gecko) Chrome/86.0.4240.111 Safari/537.36" etag="iiXWyfnQ7FuyCu5W9T2N" version="13.8.9-1" type="github">
  <diagram id="10_l2AfObQXTM1ZksgXc" name="第 1 页">
    <mxGraphModel dx="2066" dy="1074" grid="1" gridSize="10" guides="1" tooltips="1" connect="1" arrows="1" fold="1" page="1" pageScale="1" pageWidth="827" pageHeight="1169" math="0" shadow="0">
      <root>
        <mxCell id="0" />
        <mxCell id="1" parent="0" />
        <mxCell id="v-I_Fl0imGoL-gANcJ46-1" value="sfsf" style="whiteSpace=wrap;html=1;aspect=fixed;" vertex="1" parent="1">
          <mxGeometry x="370" y="610" width="80" height="80" as="geometry" />
        </mxCell>
        <mxCell id="v-I_Fl0imGoL-gANcJ46-2" value="" style="ellipse;whiteSpace=wrap;html=1;aspect=fixed;fillColor=#ffe6cc;strokeColor=#d79b00;" vertex="1" parent="1">
          <mxGeometry x="300" y="740" width="130" height="130" as="geometry" />
        </mxCell>
      </root>
    </mxGraphModel>
  </diagram>
</mxfile>
